<?xml version="1.0" encoding="utf-8"?>
<!-- Generator: Adobe Illustrator 21.1.0, SVG Export Plug-In . SVG Version: 6.00 Build 0)  -->
<svg version="1.1" id="Layer_1" xmlns="http://www.w3.org/2000/svg" xmlns:xlink="http://www.w3.org/1999/xlink" x="0px" y="0px"
	 viewBox="0 0 247.2 114.9" style="enable-background:new 0 0 247.2 114.9;" xml:space="preserve">
<style type="text/css">
	.st0{fill:#3D4140;}
	.st1{fill:#E31E33;}
</style>
<g>
	<path class="st0" d="M135.1,62.9c0,4.3-0.9,9.1-5.7,10.1l-0.4-3.6c1.5,0,2.3-2.3,2.3-6.4v-5.6c0-3.7-0.6-5.8-3.1-5.8
		c-2.8,0-3.4,2.2-3.4,5.9V63c0,4,0.4,6.4,1.7,6.4l0,3.6c-5-0.9-5.4-6-5.4-10v-5.5c0-4.4,1.2-9.5,7-9.5c5.9,0,7,4.4,7,9.3L135.1,62.9
		z"/>
	<path class="st0" d="M154.3,65.6c0,4.8-2.5,7.3-6.7,7.3c-4.6,0-7.3-2.9-7.3-6.9v-1.4c0-1.6,0.7-2.8,1.9-3.8l2.9,1.3
		c-0.8,0.7-1,1.7-1,2.5V66c0,2,1.3,3.4,3.6,3.4c2.4,0,2.9-1.7,2.9-4V52.2c0-0.4-0.7-0.7-1.7-0.7c-0.8,0-1.3,0.3-1.3,0.7v5.6h-3.3
		v-5.6c0-0.5-0.4-0.7-1-0.7c-0.2,0-0.5,0.3-0.7,0.6c-0.5,0.5-0.9,1-1.8,1c-1.1,0-2.1-0.8-2.9-1.7V47c1,1,2.6,2.4,3,2.4
		c0,0,0.2-0.1,0.4-0.3c0.5-0.4,1.1-0.9,1.9-0.9c1.3,0,2.3,0.5,3,1.6c0.7-1,1.9-1.6,2.9-1.6c2.5,0,5.3,1.6,5.3,4V65.6z"/>
	<path class="st0" d="M164.3,51.5l4.5,0v-3.4h3.6v3.5h5.3V55h-4.8c0.5,1.4,1.4,2.2,2.4,3.1c1.6,1.5,3.1,3,3.1,6.3V66
		c0,3.7-2.4,6.8-7,6.8c-4.7,0-7.1-4-7.1-6.7v-1.9c0-1.8,1.1-3.1,2.2-4.1l2.7,1.2c-0.8,0.8-1.2,2.1-1.2,2.9V66c0,1.4,1.1,3.4,3.3,3.4
		c2.4,0,3.2-1.4,3.2-3.4c0-0.5,0-1.1,0-1.6c0-2-1.2-3.2-2.4-4.5c-1.2-1.3-2.5-2.6-3.1-4.9h-4.8V51.5z"/>
	<path class="st0" d="M195.9,62.9c0,4.3-0.9,9.1-5.7,10.1l-0.4-3.6c1.5,0,2.3-2.3,2.3-6.4v-5.6c0-3.7-0.6-5.8-3.1-5.8
		c-2.8,0-3.4,2.2-3.4,5.9V63c0,4,0.4,6.4,1.7,6.4l0,3.6c-5-0.9-5.4-6-5.4-10v-5.5c0-4.4,1.2-9.5,7-9.5c5.9,0,7,4.4,7,9.3L195.9,62.9
		z"/>
	<path class="st0" d="M229.2,62.2c0,4.8-1.5,10.7-7.2,10.7v-3.5c2.7,0,3.4-3.5,3.4-7V58c0-3.1-0.1-6.5-2.6-6.5
		c-2.6,0-2.6,1.7-2.6,3.2v8.9c0,4.5-1.8,9.2-6.9,9.2c-5.5,0-6.8-4.8-6.8-9.6v-6.2c0-4.3,1.3-8.8,6.8-9c1.5,0,3.7,0.4,5,2.2
		c1.1-2,2.5-2.2,4.5-2.2c5.7,0,6.4,5.1,6.4,9.4V62.2z M216.3,54.8c0-1.5-0.8-3.2-3.1-3.2c-2.6,0-3.1,3.2-3.1,6.1V63
		c0,4.2,0.6,6.4,3.1,6.4c2.3,0,3.1-2.1,3.1-5.6V54.8z"/>
	<path class="st0" d="M247.1,62.9c0,4.3-0.9,9.1-5.7,10.1l-0.4-3.6c1.5,0,2.3-2.3,2.3-6.4v-5.6c0-3.7-0.6-5.8-3.1-5.8
		c-2.8,0-3.4,2.2-3.4,5.9V63c0,4,0.4,6.4,1.7,6.4l0,3.6c-5-0.9-5.4-6-5.4-10v-5.5c0-4.4,1.2-9.5,7-9.5c5.9,0,7,4.4,7,9.3L247.1,62.9
		z"/>
</g>
<g>
	<g>
	</g>
	<g>
		<path class="st0" d="M96.6,39c3.4,8.5,4.5,18,2.6,27.7c-0.6,3.1-1.5,6-2.6,8.8l2.9,5c1-2.6,1.8-5.4,2.4-8.2
			C104.3,60.4,102.1,48.8,96.6,39"/>
		<g>
			<path class="st1" d="M58,50.6l20.7,35.8H5.4l-4,6.9h82.8c1.4-1.3,2.8-2.7,4.1-4.2L62.1,43.7L58,50.6z"/>
			<path class="st1" d="M66.3,79.3l-4-6.9l-40.9,0L58.1,8.9l-4-6.9L12.8,73.5c0.4,2,1,3.9,1.6,5.8H66.3z"/>
			<path class="st1" d="M65.4,21.5c-1.8-0.6-3.7-1.1-5.6-1.4L33.6,65.4l7.9,0.1l20.7-35.8L99,93.3l0,0h8L65.4,21.5z"/>
			<path class="st0" d="M14.5,79.3c-0.7-1.9-1.2-3.8-1.6-5.8c-1.6-7.8-1.4-15.9,0.8-23.6c0-0.1,0.2-0.7,0.2-0.7
				c0-0.1,0.1-0.2,0.1-0.3c0.2-1-0.2-2-1-2.7c-1.2-1.1-3.1-0.9-4.2,0.3c-0.3,0.3-0.5,0.7-0.6,1.2c-4.3,12.8-3,27,3.5,38.8h5.9
				C16.3,84.1,15.3,81.7,14.5,79.3"/>
			<path class="st0" d="M22.1,93.3h-5.8c1.9,2.4,4,4.6,6.4,6.6c9.1,7.8,20.4,11.7,31.5,11.7c-9.1-1.2-17.9-4.9-25.4-11.3
				C26.3,98.2,24.1,95.8,22.1,93.3"/>
			<path class="st0" d="M88.3,89.1c-1.3,1.5-2.6,2.9-4.1,4.2c-6.1,5.5-13.4,9.4-21.5,11.3c-0.1,0-0.7,0.2-0.7,0.2
				c-0.1,0-0.2,0.1-0.3,0.1c-0.9,0.3-1.7,1.2-1.9,2.2c-0.3,1.6,0.7,3.2,2.3,3.5c0.4,0.1,0.9,0.1,1.3,0c13.5-2.6,25.3-10.9,32.4-22.7
				l-2.9-5.1C91.5,85.1,90,87.2,88.3,89.1"/>
			<path class="st0" d="M65.4,21.5c8.2,2.6,15.6,7.4,21.5,13.8c0.1,0.1,0.5,0.6,0.5,0.6c0.1,0.1,0.2,0.2,0.3,0.2
				c0.8,0.7,1.8,0.9,2.8,0.6c1.6-0.5,2.4-2.2,1.9-3.7c-0.1-0.4-0.4-0.8-0.7-1.1C82.7,21,69.2,14.5,55,14.3l-2.9,5
				c2.6,0.1,5.2,0.4,7.7,0.8C61.7,20.5,63.6,20.9,65.4,21.5"/>
			<path class="st0" d="M36.1,21.5c2.6-0.8,5.2-1.4,7.7-1.8l2.8-4.9c-2.3,0.4-4.7,0.9-7,1.6C28.2,20.1,19,27.6,13.1,37.1
				C18.9,30,26.7,24.5,36.1,21.5"/>
		</g>
	</g>
</g>
</svg>
